<?xml version="1.0" standalone="no"?><!DOCTYPE svg PUBLIC "-//W3C//DTD SVG 1.1//EN" "http://www.w3.org/Graphics/SVG/1.1/DTD/svg11.dtd"><svg t="1566465860307" class="icon" viewBox="0 0 1024 1024" version="1.1" xmlns="http://www.w3.org/2000/svg" p-id="5603" xmlns:xlink="http://www.w3.org/1999/xlink" width="500" height="500"><defs><style type="text/css"></style></defs><path d="M885.6 634.1l-28-28c-15.4-15.4-40.5-15.4-55.9 0l-278 282.3v59.3c0 9.9 10.5 19.8 19.8 19.8h59.3L885.6 690c15.4-15.4 15.4-40.5 0-55.9zM840.1 176.5c0-43.7-35.4-79.1-79.1-79.1H207.3c-43.7 0-79.1 35.4-79.1 79.1v632.8c0 43.7 35.4 79.1 79.1 79.1h196.5l436.3-436.3V176.5z m-296.6 435H266.7c-21.8 0-39.5-17.7-39.5-39.5s17.7-39.5 39.5-39.5h276.8c21.8 0 39.5 17.7 39.5 39.5s-17.7 39.5-39.5 39.5z m158.2-158.2h-435c-21.8 0-39.5-17.7-39.5-39.5s17.7-39.5 39.5-39.5h435c21.8 0 39.5 17.7 39.5 39.5s-17.7 39.5-39.5 39.5z m0-158.2h-435c-21.8 0-39.5-17.7-39.5-39.5s17.7-39.5 39.5-39.5h435c21.8 0 39.5 17.7 39.5 39.5s-17.7 39.5-39.5 39.5z" p-id="5604" fill="#9ba3af"></path></svg>