<?xml version="1.0" standalone="no"?><!DOCTYPE svg PUBLIC "-//W3C//DTD SVG 1.1//EN" "http://www.w3.org/Graphics/SVG/1.1/DTD/svg11.dtd"><svg t="1566465543143" class="icon" viewBox="0 0 1028 1024" version="1.1" xmlns="http://www.w3.org/2000/svg" p-id="1992" xmlns:xlink="http://www.w3.org/1999/xlink" width="501.953125" height="500"><defs><style type="text/css"></style></defs><path d="M474.341382 796.731676v-15.09174c0-4.400527 0-8.801054 1.299484-14.471532H205.820627a71.826053 71.826053 0 0 1-48.760203-18.222317c-13.644587-11.961164-20.14201-27.023371-20.14201-45.275222 0-17.602108 6.497423-32.693849 20.14201-45.275222a69.551955 69.551955 0 0 1 48.760203-18.872059h317.9307c27.968451-40.224952 64.383551-72.298593 109.895043-96.220922 45.511492-23.892795 95.571179-35.824425 150.179063-35.824425 5.84768 0 11.695361 0 18.842525 0.620208 6.526956 0 13.024379 0.620209 19.521801 1.269951V255.319173h-159.304988c-20.14201 0-37.685051-4.430061-52.658656-12.581372a130.834464 130.834464 0 0 1-35.735824-31.453432 136.88888 136.88888 0 0 1-20.171544-41.524437 144.242781 144.242781 0 0 1-6.497423-42.115112V0H41.347235c-10.395876 0-20.821286 3.750785-28.618193 11.311422a35.322352 35.322352 0 0 0-12.345103 27.023371v883.560869c0 10.041471 3.898454 19.492268 11.69536 27.023371 7.796907 7.560637 18.222317 11.340956 28.618193 11.340956h486.952289a261.314522 261.314522 0 0 1-40.28402-76.108445 295.839463 295.839463 0 0 1-13.024379-87.419868zM157.060424 401.806519c13.674121-12.551839 29.917678-18.222317 48.760203-18.222317h409.603426c18.872059 0 35.115616 6.290686 48.760203 18.222317 13.674121 11.961164 20.171544 27.052905 20.171544 45.304755 0 17.602108-6.497423 32.693849-20.171544 45.275222a69.551955 69.551955 0 0 1-48.760203 18.842526H205.820627a69.67009 69.67009 0 0 1-48.760203-18.842526c-13.644587-12.581373-20.14201-27.673113-20.14201-45.275222 0-18.251851 6.497423-32.693849 20.14201-45.304755z m851.723498 308.775241a238.514476 238.514476 0 0 0-52.008914-71.678385c-22.12077-20.762219-47.460719-36.474168-76.078912-48.435332a245.632107 245.632107 0 0 0-93.621952-18.222317 242.471997 242.471997 0 0 0-92.97221 18.222317 246.518119 246.518119 0 0 0-76.078912 48.435332 230.688035 230.688035 0 0 0-52.008914 71.678385c-12.994845 27.052905-18.842525 55.966435-18.842526 86.770125 0 31.453432 6.497423 61.016705 18.842526 88.040076a238.632611 238.632611 0 0 0 52.008914 71.707918c22.12077 20.762219 47.460719 36.474168 76.078912 48.405798a241.910856 241.910856 0 0 0 92.97221 18.251851 240.316034 240.316034 0 0 0 93.621952-18.251851 246.459052 246.459052 0 0 0 76.078912-48.405798c22.091237-20.112476 39.014069-44.005271 52.008914-71.707918 12.994845-27.023371 18.842525-56.586644 18.842526-88.040076 0-30.183481-6.497423-59.097012-18.842526-86.770125z m-181.396224 70.437967v155.317934c0 18.872059-16.893299 33.9638-37.714585 33.963799a39.870548 39.870548 0 0 1-26.639433-10.041471 31.158095 31.158095 0 0 1-11.075152-23.922328v-155.317934h-116.362931l155.377-138.985775 155.406535 138.985775h-118.991434zM698.000387 190.52215h123.53963V38.334793c0-10.041471-3.898454-19.492268-11.69536-27.023371a41.051897 41.051897 0 0 0-28.618194-11.311422h-164.502926v113.793496c0 19.492268 7.826441 39.014069 24.069998 54.10581a83.875819 83.875819 0 0 0 57.206852 22.622844z" p-id="1993" fill="#9ba3af"></path></svg>