<?xml version="1.0" standalone="no"?><!DOCTYPE svg PUBLIC "-//W3C//DTD SVG 1.1//EN" "http://www.w3.org/Graphics/SVG/1.1/DTD/svg11.dtd"><svg t="1569465407916" class="icon" viewBox="0 0 1024 1024" version="1.1" xmlns="http://www.w3.org/2000/svg" p-id="3308" xmlns:xlink="http://www.w3.org/1999/xlink" width="500" height="500"><defs><style type="text/css"></style></defs><path d="M910.222222 324.266667c5.688889-11.377778 2.844444-28.444444-8.533333-36.977778l-253.155556-253.155556c-8.533333-2.844444-39.822222-8.533333-54.044444-5.688889h-398.222222c-56.888889 0-85.333333 28.444444-85.333334 85.333334v768c0 56.888889 56.888889 113.777778 113.777778 113.777778h568.888889c56.888889 0 113.777778-56.888889 113.777778-113.777778V341.333333c14.222222 0-2.844444-5.688889 2.844444-17.066666z m-253.155555-184.888889L796.444444 275.911111h-102.4c-19.911111 0-34.133333-14.222222-34.133333-34.133333V139.377778zM850.488889 881.777778c0 19.911111-36.977778 56.888889-56.888889 56.888889h-568.888889c-19.911111 0-56.888889-36.977778-56.888889-56.888889V113.777778c0-19.911111 8.533333-28.444444 28.444445-28.444445h392.533333v156.444445c0 56.888889 62.577778 99.555556 119.466667 99.555555h142.222222v540.444445z m-568.888889-312.888889h455.111111v-56.888889h-455.111111v56.888889z m0 170.666667h455.111111v-56.888889h-455.111111v56.888889z m256-398.222223h-256v56.888889h256v-56.888889z" p-id="3309" fill="#9ba3af"></path></svg>