<?xml version="1.0" standalone="no"?><!DOCTYPE svg PUBLIC "-//W3C//DTD SVG 1.1//EN" "http://www.w3.org/Graphics/SVG/1.1/DTD/svg11.dtd"><svg t="1567591020334" class="icon" viewBox="0 0 1024 1024" version="1.1" xmlns="http://www.w3.org/2000/svg" p-id="2028" xmlns:xlink="http://www.w3.org/1999/xlink" width="500" height="500"><defs><style type="text/css"></style></defs><path d="M580.242286 0a113.298286 113.298286 0 0 1 0 226.523429H443.977143a113.298286 113.298286 0 0 1 0-226.523429h136.338286z m22.966857 113.371429a23.259429 23.259429 0 0 0-23.113143-23.259429H443.757714a23.186286 23.186286 0 0 0-23.186285 23.113143c0 12.8 10.386286 23.113143 23.113142 23.186286h136.411429a23.186286 23.186286 0 0 0 23.113143-23.113143z m-22.966857 264.411428a113.298286 113.298286 0 0 1 0 226.523429H443.977143a113.298286 113.298286 0 0 1 0-226.523429h136.338286z m22.966857 113.078857a23.259429 23.259429 0 0 0-23.113143-23.113143H443.757714a23.186286 23.186286 0 0 0-23.186285 23.04c0 12.8 10.386286 23.186286 23.113142 23.186286h136.411429a23.186286 23.186286 0 0 0 23.113143-23.113143z m-22.966857 264.265143a113.298286 113.298286 0 0 1 0 226.523429H443.977143a113.298286 113.298286 0 0 1 0-226.523429h136.338286z m22.966857 113.371429a23.259429 23.259429 0 0 0-23.113143-23.259429H443.757714a23.186286 23.186286 0 0 0-23.186285 23.113143c0 12.8 10.386286 23.113143 23.113142 23.186286h136.411429a23.186286 23.186286 0 0 0 23.113143-23.113143zM0 640.438857c0-127.561143 96.329143-231.350857 215.552-231.350857h60.489143a18.724571 18.724571 0 0 1 18.724571 18.724571v58.002286a18.724571 18.724571 0 0 1-18.724571 18.724572h-60.489143c-33.426286 0-64.731429 13.897143-88.502857 39.497142-23.771429 25.746286-45.348571 55.588571-45.348572 92.16 0 36.498286-8.777143 141.824 91.721143 161.645715v-52.662857a14.628571 14.628571 0 0 1 25.380572-9.947429L289.645714 833.097143a19.017143 19.017143 0 0 1 0 25.892571l-90.843428 97.865143a14.628571 14.628571 0 0 1-25.380572-9.947428v-53.394286C59.318857 887.296 0 764.050286 0 640.438857z m933.522286-340.992c0-36.571429-13.092571-70.729143-36.937143-96.475428a120.173714 120.173714 0 0 0-88.502857-39.497143h-60.416a18.724571 18.724571 0 0 1-18.724572-18.724572v-57.929143a18.724571 18.724571 0 0 1 18.724572-18.724571h60.416c119.222857 0 215.625143 103.789714 215.625143 231.350857 0 123.611429-59.318857 224.914286-173.421715 231.131429v53.394285a14.628571 14.628571 0 0 1-25.380571 9.947429l-90.843429-97.865143a19.017143 19.017143 0 0 1 0-25.892571l90.843429-97.865143a14.628571 14.628571 0 0 1 25.380571 9.947428v52.662858c83.382857-7.314286 83.236571-98.962286 83.236572-135.460572z" fill="#9ba3af" p-id="2029"></path></svg>