<?xml version="1.0" standalone="no"?><!DOCTYPE svg PUBLIC "-//W3C//DTD SVG 1.1//EN" "http://www.w3.org/Graphics/SVG/1.1/DTD/svg11.dtd"><svg viewBox="0 0 1024 1024" version="1.1" xmlns="http://www.w3.org/2000/svg" p-id="4745" xmlns:xlink="http://www.w3.org/1999/xlink" width="32" height="32" class="ucenter-icon"><path d="M272.039972 191.558709c-28.24263 20.056361-53.415409 42.875587-75.31368 68.253023-22.0006 25.479764-40.82902 52.903767-56.485261 82.476666-15.656241 29.470571-27.62866 60.783052-35.814929 93.732787-8.18627 32.949735-12.279404 66.411112-12.279405 100.281803 0 58.429499 11.153792 113.175177 33.461377 164.339362 22.307585 51.164185 52.392126 95.779354 90.45828 133.74318 37.963825 37.963825 82.578995 68.150695 133.743179 90.458279 51.164185 22.307585 106.012191 33.461377 164.339363 33.461377 57.815529 0 112.254222-11.153792 163.418407-33.461377 51.164185-22.307585 95.881683-52.392126 134.254822-90.458279 38.27081-37.963825 68.45768-82.578995 90.458279-133.74318 22.0006-51.164185 32.949735-106.012191 32.949735-164.339362 0-33.25672-3.888478-65.89947-11.767763-97.92825-7.879285-32.02878-19.033077-62.522634-33.461377-91.379235-14.4283-28.8566-32.335765-55.87129-53.722394-81.044069-21.386629-25.070451-45.22914-47.68502-71.629859-67.843709-13.81433-10.02818-28.754272-13.81433-44.717498-11.256121-15.963226 2.558209-29.061257 10.335165-39.089437 23.535525-10.02818 13.20036-13.81433 27.935645-11.358449 44.308184 2.558209 16.372539 10.335165 29.470571 23.535525 39.60108 39.601079 28.8566 69.890277 64.364545 90.867592 106.421504 21.079644 42.05696 31.517138 87.2861 31.517138 135.687419 0 41.44299-7.879285 80.532427-23.535525 117.268312-15.656241 36.735885-37.247527 68.764665-64.569201 96.08634-27.321675 27.321675-59.350455 49.015289-96.08634 64.978515-36.735885 15.963226-75.825322 24.047167-117.268312 24.047167s-80.532427-7.981613-117.268312-24.047167c-36.735885-15.963226-68.764665-37.65684-96.08634-64.978515-27.321675-27.321675-49.015289-59.350455-64.978515-96.08634-16.065554-36.735885-24.047167-75.825322-24.047167-117.268312 0-49.015289 11.256121-95.267713 33.870691-138.961926 22.61457-43.694214 54.336365-79.611472 95.165384-107.854103 13.81433-9.41421 22.102928-22.307585 24.968122-38.577795 2.865194-16.372539-0.511642-31.41481-9.925852-45.22914-9.41421-13.20036-22.307585-21.181973-38.577795-24.047167-16.167882-2.865194-31.210153 0.409313-45.024483 9.823524m242.108924 347.609473c16.372539 0 30.289198-5.832717 41.954632-17.395823 11.665434-11.665434 17.395823-25.582093 17.395822-41.954631V121.873089c0-16.372539-5.832717-30.493854-17.395822-42.363945-11.665434-11.972419-25.582093-17.907465-41.954632-17.907465-16.986509 0-31.210153 5.935045-42.875587 17.907465-11.665434 11.972419-17.395823 26.093734-17.395823 42.363945v357.944639c0 16.372539 5.832717 30.289198 17.395823 41.954631 11.563106 11.563106 25.889078 17.395823 42.875587 17.395823m0 0z" fill="#6F7FA3" p-id="4746"></path></svg>