<?xml version="1.0" standalone="no"?><!DOCTYPE svg PUBLIC "-//W3C//DTD SVG 1.1//EN" "http://www.w3.org/Graphics/SVG/1.1/DTD/svg11.dtd"><svg t="1566465580899" class="icon" viewBox="0 0 1024 1024" version="1.1" xmlns="http://www.w3.org/2000/svg" p-id="3668" xmlns:xlink="http://www.w3.org/1999/xlink" width="500" height="500"><defs><style type="text/css"></style></defs><path d="M1024 369.216s-22.016-63.04-96-64.512C851.2 304.064 832 369.28 832 369.28v257.216l-144.384 80.256s-30.528 10.752-32 64.448v192.768s3.584 51.584 64 48c46.272-2.88 48.384-48 48.384-48v-160.512l207.616-96s47.68-17.92 48.384-64.512V369.28zM272.384 579.84h480S768 571.264 768 554.752c0-17.152-15.616-23.616-15.616-23.616h-128V320.512S615.808 256 512.64 256c-112.32 0.704-111.616 64.512-111.616 64.512v210.56h-128s-15.68 2.24-15.68 26.56c-0.64 19.328 14.976 22.208 14.976 22.208zM928 272.512c44.096 0 79.616-35.84 79.616-80.256S972.16 112 928 112s-79.616 35.84-79.616 80.256 35.52 80.256 79.616 80.256zM560.384 627.84H544.64a15.872 15.872 0 0 0-15.616 15.744v257.92c0 8.64 7.04 15.808 15.616 15.808h15.68A15.872 15.872 0 0 0 576 901.568v-257.92a15.872 15.872 0 0 0-15.616-15.808z m-79.68 0h-15.616c-8.576 0-16.384 7.168-15.68 15.744v257.92c0 8.64 7.104 15.808 15.68 15.808h15.616a15.872 15.872 0 0 0 15.68-15.744v-257.92a15.872 15.872 0 0 0-15.68-15.808z m-384-354.624a80.256 80.256 0 0 0 0-160.512c-44.096 0-79.616 35.84-79.616 80.256S52.608 273.28 96.64 273.28z m239.68 434.88L192 627.84V369.92s-19.2-65.216-96-64.448C22.016 306.112 0 369.92 0 369.92v273.728c0.704 46.528 48.384 64.448 48.384 64.448L256 804.8v161.28s2.112 45.824 48.384 48.64c60.416 2.88 64-48.64 64-48.64v-193.472c-0.768-53.056-32-64.512-32-64.512zM512.64 224.512c44.096 0 79.68-35.84 79.68-80.256S556.8 64 512.64 64c-44.096 0-79.616 35.84-79.616 80.256A78.912 78.912 0 0 0 512.64 224.512z" p-id="3669" fill="#9ba3af"></path></svg>