<?xml version="1.0" standalone="no"?><!DOCTYPE svg PUBLIC "-//W3C//DTD SVG 1.1//EN" "http://www.w3.org/Graphics/SVG/1.1/DTD/svg11.dtd"><svg t="1559552112533" class="icon" style="" viewBox="0 0 1024 1024" version="1.1" xmlns="http://www.w3.org/2000/svg" p-id="3727" xmlns:xlink="http://www.w3.org/1999/xlink" width="32" height="32"><defs><style type="text/css"></style></defs><path d="M853.333333 213.333333 170.666667 213.333333C145.066667 213.333333 128 196.266667 128 170.666667s17.066667-42.666667 42.666667-42.666667l682.666667 0c25.6 0 42.666667 17.066667 42.666667 42.666667S878.933333 213.333333 853.333333 213.333333z" p-id="3728" fill="#727882"></path><path d="M853.333333 896 170.666667 896c-25.6 0-42.666667-17.066667-42.666667-42.666667s17.066667-42.666667 42.666667-42.666667l682.666667 0c25.6 0 42.666667 17.066667 42.666667 42.666667S878.933333 896 853.333333 896z" p-id="3729" fill="#727882"></path><path d="M853.333333 554.666667 170.666667 554.666667c-25.6 0-42.666667-17.066667-42.666667-42.666667s17.066667-42.666667 42.666667-42.666667l682.666667 0c25.6 0 42.666667 17.066667 42.666667 42.666667S878.933333 554.666667 853.333333 554.666667z" p-id="3730" fill="#727882"></path></svg>