<?xml version="1.0" standalone="no"?><!DOCTYPE svg PUBLIC "-//W3C//DTD SVG 1.1//EN" "http://www.w3.org/Graphics/SVG/1.1/DTD/svg11.dtd"><svg t="1567751833690" class="icon" viewBox="0 0 1024 1024" version="1.1" xmlns="http://www.w3.org/2000/svg" p-id="1999" xmlns:xlink="http://www.w3.org/1999/xlink" width="500" height="500"><defs><style type="text/css"></style></defs><path d="M161.5872 517.8094933333334c0-16.498915555555556 11.4176-29.908764444444444 25.383822222222218-29.908764444444444h276.0851911111111v133.02442666666667h69.77763555555555V487.9018666666667h276.7758222222222c13.753457777777777 0 25.43616 13.71591111111111 25.43616 29.908764444444444v103.1168h69.7799111111111v-103.1168c0-53.18883555555555-42.696248888888896-96.4096-95.21493333333333-96.4096h-276.7758222222222V301.3632c61.84504888888889-17.14631111111111 107.37550222222222-75.56323555555555 107.37550222222222-144.99726222222222 0-82.79608888888887-64.89201777777778-150.00348444444444-144.97223111111109-150.00348444444444s-144.97223111111109 67.20853333333334-144.97223111111109 150.00462222222222c0 71.44447999999998 48.20536888888889 131.23128888888888 112.79132444444444 146.3864888888889v118.64746666666666H186.96988444444446c-52.46634666666666 0-95.16145777777778 43.22076444444444-95.16145777777778 96.4096v103.1168h69.77763555555555v-103.1168zM495.2359822222223 686.1915022222222c-80.07907555555556 0-144.97223111111109 67.15733333333333-144.97223111111109 150.05468444444443 0 82.89507555555556 64.89201777777778 150.05468444444443 144.97223111111109 150.05468444444443s144.97223111111109-67.15960888888888 144.97223111111109-150.05468444444443c0-82.89735111111109-64.89201777777778-150.05468444444443-144.97223111111109-150.05468444444443zM144.75263999999999 690.2920533333332c-80.02673777777777 0-144.97223111111109 67.1072711111111-144.97223111111109 150.00234666666665 0 82.89735111111109 64.94549333333333 150.10474666666664 144.97223111111109 150.10474666666664 80.1336888888889 0 145.07804444444446-67.20739555555556 145.07804444444446-150.10474666666664 0-82.89507555555556-64.94435555555555-150.00234666666665-145.07804444444446-150.00234666666665zM869.9335111111111 690.898488888889c-80.13141333333333 0-145.07804444444446 67.2096711111111-145.07804444444446 150.00348444444444 0 82.89848888888888 64.94663111111112 150.10474666666664 145.07804444444446 150.10474666666664 80.02787555555555 0 144.97336888888887-67.20739555555556 144.97336888888887-150.10474666666664 0-82.79381333333333-64.94435555555555-150.00348444444444-144.97336888888887-150.00348444444444z" p-id="2000" fill="#6F7FA3"></path></svg>