<?xml version="1.0" standalone="no"?><!DOCTYPE svg PUBLIC "-//W3C//DTD SVG 1.1//EN" "http://www.w3.org/Graphics/SVG/1.1/DTD/svg11.dtd"><svg t="1559556172964" class="icon" style="" viewBox="0 0 1024 1024" version="1.1" xmlns="http://www.w3.org/2000/svg" p-id="4593" xmlns:xlink="http://www.w3.org/1999/xlink" width="32" height="32"><defs><style type="text/css"></style></defs><path d="M927.368172 398.579811l-69.070098 40.813544c3.870144 21.432125 6.41306 43.323715 6.41306 65.918315 0 22.586414-2.537799 44.482097-6.41306 65.909106l69.070098 40.813544c28.213575 16.666588 37.877679 53.586452 21.589714 82.461083l-58.988486 104.558357c-16.287965 28.869514-52.365648 38.763862-80.574107 22.097274l-69.77925-41.23003c-32.604582 28.399817-69.659523 51.613518-110.851691 66.536392l0 51.234895c0 33.337269-26.412556 60.367903-58.988486 60.367903L451.798896 958.060195c-32.571836 0-58.979276-27.030633-58.979276-60.367903l0-51.234895c-41.192168-14.922874-78.256318-38.136575-110.855784-66.536392l-69.774133 41.23003c-28.213575 16.666588-64.290235 6.77224-80.5782-22.097274L72.621994 694.496427c-16.282848-28.874631-6.618744-65.794495 21.589714-82.461083l69.070098-40.813544c-3.874237-21.427008-6.41306-43.323715-6.41306-65.909106 0-22.595624 2.537799-44.487214 6.41306-65.923432l-69.070098-40.808428c-28.208459-16.671705-37.873586-53.591569-21.589714-82.461083l58.988486-104.558357c16.287965-28.878724 52.365648-38.768979 80.5782-22.097274l69.774133 41.225937c32.604582-28.399817 69.663616-51.613518 110.855784-66.536392L392.818597 112.922862c0-33.337269 26.40744-60.367903 58.979276-60.367903l117.977995 0c32.57593 0 58.988486 27.030633 58.988486 60.367903l0 51.229778c41.187051 14.922874 78.246085 38.136575 110.846574 66.536392l69.783343-41.225937c28.208459-16.671705 64.286142-6.78145 80.574107 22.097274l58.988486 104.558357C965.245851 344.989265 955.581748 381.90913 927.368172 398.579811zM883.129622 320.165904l-29.496801-52.283784c-8.146541-14.434757-26.187429-19.382443-40.291658-11.048637l-81.94329 48.418756c-41.594327-48.016597-97.80556-82.461083-161.622004-95.722108l0-66.426899c0-16.671705-13.20372-30.181393-29.491685-30.181393L481.295698 112.921839c-16.287965 0-29.496801 13.510712-29.496801 30.181393l0 66.426899c-63.807235 13.261025-120.017444 47.705512-161.611771 95.722108l-81.948407-48.418756c-14.109346-8.332782-32.145118-3.38612-40.286542 11.048637l-29.496801 52.283784c-8.146541 14.429641-3.309372 32.892131 10.794857 41.225937l82.278935 48.615231c-9.803273 30.027897-15.669888 61.895699-15.669888 95.305623 0 33.399691 5.861498 65.267493 15.665795 95.29539l-82.273818 48.610114c-14.104229 8.337899-18.941398 26.795273-10.794857 41.235147l29.496801 52.274574c8.141424 14.439874 26.178219 19.386536 40.286542 11.048637l81.94329-48.418756c41.594327 48.016597 97.80556 82.461083 161.616888 95.716992l0 66.436108c0 16.666588 13.208836 30.181393 29.496801 30.181393l58.988486 0c16.287965 0 29.491685-13.514805 29.491685-30.181393l0-66.436108c63.816444-13.256932 120.027677-47.700395 161.626098-95.716992l81.939197 48.418756c14.104229 8.337899 32.145118 3.391237 40.291658-11.048637l29.496801-52.274574c8.141424-14.439874 3.304256-32.897248-10.799974-41.235147l-82.273818-48.610114c9.79918-30.027897 15.669888-61.895699 15.669888-95.29539 0-33.409924-5.871731-65.276702-15.669888-95.305623l82.273818-48.615231C886.434901 353.059058 891.27207 334.596568 883.129622 320.165904zM510.792499 656.220682c-81.44494 0-147.46968-67.565838-147.46968-150.907988 0-83.356476 66.023716-150.927431 147.46968-150.927431 81.440847 0 147.464563 67.570955 147.464563 150.927431C658.257062 588.654844 592.232322 656.220682 510.792499 656.220682zM510.792499 414.758282c-48.869011 0-88.481194 40.540322-88.481194 90.554412 0 50.003857 39.61116 90.540086 88.481194 90.540086 48.864918 0 88.481194-40.536228 88.481194-90.540086C599.272669 455.298604 559.656393 414.758282 510.792499 414.758282z" p-id="4594" fill="#9ba3af"></path></svg>