<?xml version="1.0" standalone="no"?><!DOCTYPE svg PUBLIC "-//W3C//DTD SVG 1.1//EN" "http://www.w3.org/Graphics/SVG/1.1/DTD/svg11.dtd"><svg t="1567858020260" class="icon" viewBox="0 0 1024 1024" version="1.1" xmlns="http://www.w3.org/2000/svg" p-id="2024" xmlns:xlink="http://www.w3.org/1999/xlink" width="500" height="500"><defs><style type="text/css"></style></defs><path d="M310.272 606.208c-18.944 18.944-18.944 49.152 0 68.096 18.944 18.944 49.152 18.944 68.096 0 9.216-9.216 14.336-20.992 14.336-33.792s-5.12-25.088-13.824-33.792c-19.456-19.456-50.176-19.456-68.608-0.512z" p-id="2025" fill="#9ba3af"></path><path d="M832 64h-640c-70.656 0-128 57.344-128 128v640c0 70.656 57.344 128 128 128h640c70.656 0 128-57.344 128-128v-640c0-70.656-57.344-128-128-128z m-487.936 688.128c-61.952 0-112.128-50.176-112.128-112.128 0-61.952 50.176-112.128 112.128-112.128 61.952 0 112.128 50.176 112.128 112.128 0 61.952-50.176 112.128-112.128 112.128z m118.784-409.6l-128 128c-12.288 12.288-32.768 12.288-45.056 0L225.28 406.528c-12.288-12.288-12.288-32.768 0-45.056s32.768-12.288 45.056 0l41.472 41.472 105.472-105.472c12.288-12.288 32.256-12.288 45.056 0 12.288 12.288 12.8 32.768 0.512 45.056z m329.216 329.216h-256c-17.408 0-31.744-14.336-31.744-31.744 0-17.408 14.336-31.744 31.744-31.744h256c17.408 0 31.744 14.336 31.744 31.744 0 17.408-14.336 31.744-31.744 31.744z m0-256h-256c-17.408 0-31.744-14.336-31.744-31.744s14.336-31.744 31.744-31.744h256c17.408 0 31.744 14.336 31.744 31.744s-14.336 31.744-31.744 31.744z" p-id="2026" fill="#9ba3af"></path></svg>