<?xml version="1.0" standalone="no"?><!DOCTYPE svg PUBLIC "-//W3C//DTD SVG 1.1//EN" "http://www.w3.org/Graphics/SVG/1.1/DTD/svg11.dtd"><svg t="1566465560454" class="icon" viewBox="0 0 1024 1024" version="1.1" xmlns="http://www.w3.org/2000/svg" p-id="2826" xmlns:xlink="http://www.w3.org/1999/xlink" width="500" height="500"><defs><style type="text/css"></style></defs><path d="M310.420959 172.826184C177.511903 174.083827 68.743664 291.446815 66.087161 423.796122l-0.725524-0.002047-1.453095 535.100114 535.766286 1.455141 0.037862-0.069585c132.081201-2.318812 244.895593-110.829178 247.527536-242.476497l0.197498 0 1.475608-543.531134-538.492374-1.462305L310.420959 172.826184zM744.138034 717.522863c-2.364861 79.171154-62.923098 137.245827-142.110625 139.702786l-435.386088-1.195222 1.193175-430.397471 0 0.002047c1.677199-81.179904 60.616566-149.868309 142.303007-150.086274l434.983929 1.180895-1.193175 440.791192L744.138034 717.522863z" p-id="2827" fill="#9ba3af"></path><path d="M914.51647 65.00348 385.312646 65.00348 385.312646 110.577444 914.51647 110.577444 914.51647 639.781268 960.091458 639.781268 960.091458 110.577444 960.091458 65.00348Z" p-id="2828" fill="#9ba3af"></path><path d="M298.075793 662.734026l316.67029 0 0 63.653739-316.67029 0 0-63.653739Z" p-id="2829" fill="#9ba3af"></path><path d="M298.075793 535.258727l316.67029 0 0 63.653739-316.67029 0 0-63.653739Z" p-id="2830" fill="#9ba3af"></path><path d="M298.075793 406.7724l316.67029 0 0 63.653739-316.67029 0 0-63.653739Z" p-id="2831" fill="#9ba3af"></path></svg>