<?xml version="1.0" standalone="no"?><!DOCTYPE svg PUBLIC "-//W3C//DTD SVG 1.1//EN" "http://www.w3.org/Graphics/SVG/1.1/DTD/svg11.dtd"><svg t="1568775045062" class="icon" viewBox="0 0 1024 1024" version="1.1" xmlns="http://www.w3.org/2000/svg" p-id="3501" xmlns:xlink="http://www.w3.org/1999/xlink" width="500" height="500"><defs><style type="text/css"></style></defs><path d="M736.086875 672.3546875c79.2253125-108.8578125 68.8340625-259.831875-26.765625-354.86625-51.9628125-51.9740625-120.8015625-80.1815625-194.1-80.1815625-73.3059375 0-142.123125 28.7071875-194.1215625 80.1815625-51.009375 51.9759375-79.7278125 120.770625-79.7278125 194.0371875 0 73.245 28.7221875 142.0471875 80.2265625 194.015625 51.9825 51.97875 120.8184375 80.1871875 194.1196875 80.1871875 57.92625 0 113.38125-18.3253125 160.93125-53.4665625l142.6190625 142.0434375c7.93875 7.9340625 18.33 12.37875 29.720625 12.37875 11.3878125 0 21.781875-4.4446875 29.71875-12.37875 16.336875-16.325625 16.336875-43.04625 0-59.4121875L736.0859375 672.3546875z m-355.06875-26.218125c-74.28375-74.2434375-74.28375-194.514375 0-268.75875 36.140625-36.121875 83.694375-55.4221875 134.694375-55.4221875 50.983125 0 98.540625 19.798125 134.7009375 55.4221875 74.285625 74.2471875 74.285625 194.518125 0 268.75875-71.8275 71.2884375-197.5875 71.2884375-269.39625 0z" p-id="3502" fill="#459be0"></path><path d="M727.6484375 71.999375H296.823125c-123.793125 0-224.821875 100.48125-224.821875 224.698125v430.61625c0 123.7228125 100.531875 224.68125 224.821875 224.68125h233.754375c23.2771875 0 42.0646875-18.781875 42.0646875-42.046875 0-23.2640625-18.7875-42.0853125-42.065625-42.0853125H296.8240625c-77.255625 0-140.1478125-62.8565625-140.1478125-140.049375V297.1934375c0-77.2153125 62.8921875-140.068125 140.146875-140.068125h430.82625c77.2725 0 140.1703125 62.859375 140.1703125 140.068125v229.16625c0 23.263125 18.7903125 42.084375 42.0675 42.084375s42.110625-18.82125 42.110625-42.084375V296.2203125c-0.005625-123.7425-100.5159375-224.221875-224.3484375-224.221875z" p-id="3503" fill="#459be0"></path></svg>